<svg width="840" height="200" viewBox="0 0 840 200" fill="none" xmlns="http://www.w3.org/2000/svg">
<path d="M200 200H75L200 0V200Z" fill="#777777"/>
<path d="M640 200H765L640 0V200Z" fill="#777777"/>
<path d="M415 100.183C415 155.172 370.228 199.75 315 199.75C259.772 199.75 215 155.172 215 100.183L415 100.183Z" fill="#777777"/>
<path d="M510.614 0L626.229 200H395L510.614 0Z" fill="#444444"/>
<path d="M0 199.75H200L0 0V199.75Z" fill="#444444"/>
<path d="M840 199.75H640L840 0V199.75Z" fill="#444444"/>
<path d="M384.034 27.532C344.077 -10.4295 280.778 -8.95186 242.652 30.8324C204.525 70.6168 206.009 133.642 245.966 171.604L384.034 27.532Z" fill="#444444"/>
</svg>
